<mxfile host="Electron" agent="Mozilla/5.0 (Windows NT 10.0; Win64; x64) AppleWebKit/537.36 (KHTML, like Gecko) draw.io/26.1.1 Chrome/132.0.6834.210 Electron/34.3.3 Safari/537.36" version="26.1.1">
  <diagram name="第 1 页" id="cajPOju2pzKjePo_KDis">
    <mxGraphModel dx="2501" dy="836" grid="1" gridSize="10" guides="1" tooltips="1" connect="1" arrows="1" fold="1" page="1" pageScale="1" pageWidth="827" pageHeight="1169" math="0" shadow="0">
      <root>
        <mxCell id="0" />
        <mxCell id="1" parent="0" />
        <mxCell id="0xeATaaCrTYgMmCTcEPK-57" value="" style="rounded=0;whiteSpace=wrap;html=1;" vertex="1" parent="1">
          <mxGeometry x="-330" y="490" width="1370" height="1100" as="geometry" />
        </mxCell>
        <mxCell id="NssD5fJbULZ8Jyo4WvIF-2" value="体系结构的进程图" style="text;html=1;align=center;verticalAlign=middle;whiteSpace=wrap;rounded=0;" parent="1" vertex="1">
          <mxGeometry x="224" y="570" width="190" height="30" as="geometry" />
        </mxCell>
        <mxCell id="0xeATaaCrTYgMmCTcEPK-25" value="]" style="text;html=1;align=center;verticalAlign=middle;resizable=0;points=[];autosize=1;strokeColor=none;fillColor=none;" vertex="1" parent="1">
          <mxGeometry x="865" y="255" width="30" height="30" as="geometry" />
        </mxCell>
        <mxCell id="0xeATaaCrTYgMmCTcEPK-35" value="&lt;div style=&quot;text-align: start;&quot;&gt;用户&lt;/div&gt;" style="whiteSpace=wrap;html=1;align=center;" vertex="1" parent="1">
          <mxGeometry x="-90" y="780" width="190" height="100" as="geometry" />
        </mxCell>
        <mxCell id="0xeATaaCrTYgMmCTcEPK-36" value="前端应用" style="whiteSpace=wrap;html=1;align=center;" vertex="1" parent="1">
          <mxGeometry x="295" y="780" width="190" height="100" as="geometry" />
        </mxCell>
        <mxCell id="0xeATaaCrTYgMmCTcEPK-37" value="" style="edgeStyle=orthogonalEdgeStyle;rounded=0;orthogonalLoop=1;jettySize=auto;html=1;" edge="1" parent="1" source="0xeATaaCrTYgMmCTcEPK-38" target="0xeATaaCrTYgMmCTcEPK-43">
          <mxGeometry relative="1" as="geometry" />
        </mxCell>
        <mxCell id="0xeATaaCrTYgMmCTcEPK-38" value="后端服务（controller）" style="whiteSpace=wrap;html=1;align=center;" vertex="1" parent="1">
          <mxGeometry x="690" y="780" width="190" height="100" as="geometry" />
        </mxCell>
        <mxCell id="0xeATaaCrTYgMmCTcEPK-39" value="MySQL数据库" style="whiteSpace=wrap;html=1;align=center;" vertex="1" parent="1">
          <mxGeometry x="-90" y="960" width="190" height="100" as="geometry" />
        </mxCell>
        <mxCell id="0xeATaaCrTYgMmCTcEPK-40" value="" style="edgeStyle=orthogonalEdgeStyle;rounded=0;orthogonalLoop=1;jettySize=auto;html=1;entryX=1;entryY=0.5;entryDx=0;entryDy=0;" edge="1" parent="1" source="0xeATaaCrTYgMmCTcEPK-41" target="0xeATaaCrTYgMmCTcEPK-39">
          <mxGeometry relative="1" as="geometry">
            <mxPoint x="219" y="1010" as="targetPoint" />
          </mxGeometry>
        </mxCell>
        <mxCell id="0xeATaaCrTYgMmCTcEPK-41" value="数据库操作（DAO）" style="whiteSpace=wrap;html=1;align=center;" vertex="1" parent="1">
          <mxGeometry x="299" y="960" width="190" height="100" as="geometry" />
        </mxCell>
        <mxCell id="0xeATaaCrTYgMmCTcEPK-42" value="" style="edgeStyle=orthogonalEdgeStyle;rounded=0;orthogonalLoop=1;jettySize=auto;html=1;entryX=1;entryY=0.5;entryDx=0;entryDy=0;" edge="1" parent="1" source="0xeATaaCrTYgMmCTcEPK-43" target="0xeATaaCrTYgMmCTcEPK-41">
          <mxGeometry relative="1" as="geometry">
            <mxPoint x="610" y="1010" as="targetPoint" />
          </mxGeometry>
        </mxCell>
        <mxCell id="0xeATaaCrTYgMmCTcEPK-43" value="业务逻辑处理（service）" style="whiteSpace=wrap;html=1;align=center;" vertex="1" parent="1">
          <mxGeometry x="690" y="960" width="190" height="100" as="geometry" />
        </mxCell>
        <mxCell id="0xeATaaCrTYgMmCTcEPK-44" value="" style="endArrow=classic;html=1;rounded=0;entryX=0;entryY=0.5;entryDx=0;entryDy=0;" edge="1" parent="1">
          <mxGeometry relative="1" as="geometry">
            <mxPoint x="100" y="829.5" as="sourcePoint" />
            <mxPoint x="295" y="830" as="targetPoint" />
          </mxGeometry>
        </mxCell>
        <mxCell id="0xeATaaCrTYgMmCTcEPK-45" value="用户点击网页上的按钮组件" style="text;html=1;align=center;verticalAlign=middle;resizable=0;points=[];autosize=1;strokeColor=none;fillColor=none;" vertex="1" parent="1">
          <mxGeometry x="110" y="800" width="170" height="30" as="geometry" />
        </mxCell>
        <mxCell id="0xeATaaCrTYgMmCTcEPK-46" value="" style="endArrow=classic;html=1;rounded=0;entryX=0;entryY=0.5;entryDx=0;entryDy=0;" edge="1" parent="1" target="0xeATaaCrTYgMmCTcEPK-38">
          <mxGeometry relative="1" as="geometry">
            <mxPoint x="485" y="829" as="sourcePoint" />
            <mxPoint x="585" y="829" as="targetPoint" />
          </mxGeometry>
        </mxCell>
        <mxCell id="0xeATaaCrTYgMmCTcEPK-47" value="" style="endArrow=none;html=1;rounded=0;" edge="1" parent="1">
          <mxGeometry relative="1" as="geometry">
            <mxPoint x="580" y="830" as="sourcePoint" />
            <mxPoint x="580" y="730" as="targetPoint" />
          </mxGeometry>
        </mxCell>
        <mxCell id="0xeATaaCrTYgMmCTcEPK-48" value="" style="endArrow=none;html=1;rounded=0;" edge="1" parent="1">
          <mxGeometry relative="1" as="geometry">
            <mxPoint y="730" as="sourcePoint" />
            <mxPoint x="580" y="730" as="targetPoint" />
          </mxGeometry>
        </mxCell>
        <mxCell id="0xeATaaCrTYgMmCTcEPK-49" value="" style="endArrow=classic;html=1;rounded=0;entryX=0.5;entryY=0;entryDx=0;entryDy=0;" edge="1" parent="1" target="0xeATaaCrTYgMmCTcEPK-35">
          <mxGeometry relative="1" as="geometry">
            <mxPoint x="5" y="730" as="sourcePoint" />
            <mxPoint x="10" y="770" as="targetPoint" />
          </mxGeometry>
        </mxCell>
        <mxCell id="0xeATaaCrTYgMmCTcEPK-50" value="" style="verticalLabelPosition=bottom;verticalAlign=top;html=1;shape=mxgraph.basic.tick" vertex="1" parent="1">
          <mxGeometry x="550" y="850" width="70" height="50" as="geometry" />
        </mxCell>
        <mxCell id="0xeATaaCrTYgMmCTcEPK-51" value="前端请求符合标准，可以发送至后端" style="text;html=1;align=center;verticalAlign=middle;resizable=0;points=[];autosize=1;strokeColor=none;fillColor=none;" vertex="1" parent="1">
          <mxGeometry x="475" y="830" width="220" height="30" as="geometry" />
        </mxCell>
        <mxCell id="0xeATaaCrTYgMmCTcEPK-52" value="" style="verticalLabelPosition=bottom;verticalAlign=top;html=1;shape=mxgraph.basic.x" vertex="1" parent="1">
          <mxGeometry x="240" y="690" width="50" height="40" as="geometry" />
        </mxCell>
        <mxCell id="0xeATaaCrTYgMmCTcEPK-53" value="请求不符合标准，通知用户重新使用网页组件" style="text;html=1;align=center;verticalAlign=middle;resizable=0;points=[];autosize=1;strokeColor=none;fillColor=none;" vertex="1" parent="1">
          <mxGeometry x="134" y="730" width="260" height="30" as="geometry" />
        </mxCell>
        <mxCell id="0xeATaaCrTYgMmCTcEPK-54" value="后端调用业务处理层，&lt;div&gt;对请求进行详细的处理&lt;/div&gt;" style="text;html=1;align=center;verticalAlign=middle;resizable=0;points=[];autosize=1;strokeColor=none;fillColor=none;" vertex="1" parent="1">
          <mxGeometry x="790" y="900" width="140" height="40" as="geometry" />
        </mxCell>
        <mxCell id="0xeATaaCrTYgMmCTcEPK-55" value="后端函数调用DAO相关数据" style="text;html=1;align=center;verticalAlign=middle;resizable=0;points=[];autosize=1;strokeColor=none;fillColor=none;" vertex="1" parent="1">
          <mxGeometry x="500" y="978" width="170" height="30" as="geometry" />
        </mxCell>
        <mxCell id="0xeATaaCrTYgMmCTcEPK-56" value="访问数据库种对应数据并做出修改" style="text;html=1;align=center;verticalAlign=middle;resizable=0;points=[];autosize=1;strokeColor=none;fillColor=none;" vertex="1" parent="1">
          <mxGeometry x="100" y="978" width="200" height="30" as="geometry" />
        </mxCell>
        <mxCell id="0xeATaaCrTYgMmCTcEPK-58" value="大部分模块的进程图(例如用户模块，购物模块)" style="text;html=1;align=center;verticalAlign=middle;whiteSpace=wrap;rounded=0;" vertex="1" parent="1">
          <mxGeometry x="-480" y="730" width="570" height="30" as="geometry" />
        </mxCell>
        <mxCell id="0xeATaaCrTYgMmCTcEPK-59" value="支付模块的进程图" style="text;html=1;align=center;verticalAlign=middle;whiteSpace=wrap;rounded=0;" vertex="1" parent="1">
          <mxGeometry x="-330" y="1120" width="120" height="30" as="geometry" />
        </mxCell>
        <mxCell id="0xeATaaCrTYgMmCTcEPK-64" value="" style="edgeStyle=orthogonalEdgeStyle;rounded=0;orthogonalLoop=1;jettySize=auto;html=1;entryX=0;entryY=0.5;entryDx=0;entryDy=0;" edge="1" parent="1" source="0xeATaaCrTYgMmCTcEPK-60" target="0xeATaaCrTYgMmCTcEPK-61">
          <mxGeometry relative="1" as="geometry">
            <mxPoint x="180" y="1240" as="targetPoint" />
          </mxGeometry>
        </mxCell>
        <mxCell id="0xeATaaCrTYgMmCTcEPK-60" value="&lt;div style=&quot;text-align: start;&quot;&gt;用户&lt;/div&gt;" style="whiteSpace=wrap;html=1;align=center;" vertex="1" parent="1">
          <mxGeometry x="-90" y="1190" width="190" height="100" as="geometry" />
        </mxCell>
        <mxCell id="0xeATaaCrTYgMmCTcEPK-68" value="" style="edgeStyle=orthogonalEdgeStyle;rounded=0;orthogonalLoop=1;jettySize=auto;html=1;entryX=0;entryY=0.5;entryDx=0;entryDy=0;" edge="1" parent="1" source="0xeATaaCrTYgMmCTcEPK-61" target="0xeATaaCrTYgMmCTcEPK-66">
          <mxGeometry relative="1" as="geometry">
            <mxPoint x="565" y="1240" as="targetPoint" />
          </mxGeometry>
        </mxCell>
        <mxCell id="0xeATaaCrTYgMmCTcEPK-61" value="前端应用" style="whiteSpace=wrap;html=1;align=center;" vertex="1" parent="1">
          <mxGeometry x="295" y="1190" width="190" height="100" as="geometry" />
        </mxCell>
        <mxCell id="0xeATaaCrTYgMmCTcEPK-62" value="用户点击网页上的按钮组件" style="text;html=1;align=center;verticalAlign=middle;resizable=0;points=[];autosize=1;strokeColor=none;fillColor=none;" vertex="1" parent="1">
          <mxGeometry x="110" y="1210" width="170" height="30" as="geometry" />
        </mxCell>
        <mxCell id="0xeATaaCrTYgMmCTcEPK-81" value="" style="edgeStyle=orthogonalEdgeStyle;rounded=0;orthogonalLoop=1;jettySize=auto;html=1;" edge="1" parent="1" source="0xeATaaCrTYgMmCTcEPK-66" target="0xeATaaCrTYgMmCTcEPK-78">
          <mxGeometry relative="1" as="geometry" />
        </mxCell>
        <mxCell id="0xeATaaCrTYgMmCTcEPK-66" value="后端服务（controller）" style="whiteSpace=wrap;html=1;align=center;" vertex="1" parent="1">
          <mxGeometry x="690" y="1190" width="190" height="100" as="geometry" />
        </mxCell>
        <mxCell id="0xeATaaCrTYgMmCTcEPK-67" value="前端请求符合标准，可以发送至后端" style="text;html=1;align=center;verticalAlign=middle;resizable=0;points=[];autosize=1;strokeColor=none;fillColor=none;" vertex="1" parent="1">
          <mxGeometry x="475" y="1240" width="220" height="30" as="geometry" />
        </mxCell>
        <mxCell id="0xeATaaCrTYgMmCTcEPK-69" value="" style="endArrow=none;html=1;rounded=0;" edge="1" parent="1">
          <mxGeometry relative="1" as="geometry">
            <mxPoint x="584.5" y="1240" as="sourcePoint" />
            <mxPoint x="584.5" y="1140" as="targetPoint" />
          </mxGeometry>
        </mxCell>
        <mxCell id="0xeATaaCrTYgMmCTcEPK-70" value="" style="endArrow=none;html=1;rounded=0;" edge="1" parent="1">
          <mxGeometry relative="1" as="geometry">
            <mxPoint x="10" y="1140" as="sourcePoint" />
            <mxPoint x="590" y="1140" as="targetPoint" />
          </mxGeometry>
        </mxCell>
        <mxCell id="0xeATaaCrTYgMmCTcEPK-72" value="" style="endArrow=classic;html=1;rounded=0;" edge="1" parent="1">
          <mxGeometry relative="1" as="geometry">
            <mxPoint x="10" y="1140" as="sourcePoint" />
            <mxPoint x="10" y="1190" as="targetPoint" />
          </mxGeometry>
        </mxCell>
        <mxCell id="0xeATaaCrTYgMmCTcEPK-74" value="请求不符合标准，通知用户重新使用网页组件" style="text;html=1;align=center;verticalAlign=middle;resizable=0;points=[];autosize=1;strokeColor=none;fillColor=none;" vertex="1" parent="1">
          <mxGeometry x="134" y="1139" width="260" height="30" as="geometry" />
        </mxCell>
        <mxCell id="0xeATaaCrTYgMmCTcEPK-75" value="" style="verticalLabelPosition=bottom;verticalAlign=top;html=1;shape=mxgraph.basic.x" vertex="1" parent="1">
          <mxGeometry x="239" y="1099" width="50" height="40" as="geometry" />
        </mxCell>
        <mxCell id="0xeATaaCrTYgMmCTcEPK-77" value="" style="verticalLabelPosition=bottom;verticalAlign=top;html=1;shape=mxgraph.basic.tick" vertex="1" parent="1">
          <mxGeometry x="550" y="1260" width="70" height="50" as="geometry" />
        </mxCell>
        <mxCell id="0xeATaaCrTYgMmCTcEPK-85" value="" style="edgeStyle=orthogonalEdgeStyle;rounded=0;orthogonalLoop=1;jettySize=auto;html=1;entryX=1;entryY=0.5;entryDx=0;entryDy=0;" edge="1" parent="1" source="0xeATaaCrTYgMmCTcEPK-78" target="0xeATaaCrTYgMmCTcEPK-83">
          <mxGeometry relative="1" as="geometry">
            <mxPoint x="610" y="1430" as="targetPoint" />
          </mxGeometry>
        </mxCell>
        <mxCell id="0xeATaaCrTYgMmCTcEPK-78" value="业务逻辑处理（service）" style="whiteSpace=wrap;html=1;align=center;" vertex="1" parent="1">
          <mxGeometry x="690" y="1380" width="190" height="100" as="geometry" />
        </mxCell>
        <mxCell id="0xeATaaCrTYgMmCTcEPK-82" value="后端调用业务处理层，&lt;div&gt;对请求进行详细的处理&lt;/div&gt;" style="text;html=1;align=center;verticalAlign=middle;resizable=0;points=[];autosize=1;strokeColor=none;fillColor=none;" vertex="1" parent="1">
          <mxGeometry x="780" y="1320" width="140" height="40" as="geometry" />
        </mxCell>
        <mxCell id="0xeATaaCrTYgMmCTcEPK-88" value="" style="edgeStyle=orthogonalEdgeStyle;rounded=0;orthogonalLoop=1;jettySize=auto;html=1;entryX=1;entryY=0.5;entryDx=0;entryDy=0;" edge="1" parent="1" source="0xeATaaCrTYgMmCTcEPK-83" target="0xeATaaCrTYgMmCTcEPK-84">
          <mxGeometry relative="1" as="geometry">
            <mxPoint x="219" y="1430" as="targetPoint" />
          </mxGeometry>
        </mxCell>
        <mxCell id="0xeATaaCrTYgMmCTcEPK-83" value="支付宝API" style="whiteSpace=wrap;html=1;align=center;" vertex="1" parent="1">
          <mxGeometry x="299" y="1380" width="190" height="100" as="geometry" />
        </mxCell>
        <mxCell id="0xeATaaCrTYgMmCTcEPK-84" value="支付回调" style="whiteSpace=wrap;html=1;align=center;" vertex="1" parent="1">
          <mxGeometry x="-90" y="1380" width="190" height="100" as="geometry" />
        </mxCell>
        <mxCell id="0xeATaaCrTYgMmCTcEPK-87" value="调用支付宝API，对支付进行操作" style="text;html=1;align=center;verticalAlign=middle;whiteSpace=wrap;rounded=0;" vertex="1" parent="1">
          <mxGeometry x="500" y="1400" width="180" height="30" as="geometry" />
        </mxCell>
        <mxCell id="0xeATaaCrTYgMmCTcEPK-89" value="对订单信息处理完毕，支付回调" style="text;html=1;align=center;verticalAlign=middle;whiteSpace=wrap;rounded=0;" vertex="1" parent="1">
          <mxGeometry x="110" y="1400" width="180" height="30" as="geometry" />
        </mxCell>
      </root>
    </mxGraphModel>
  </diagram>
</mxfile>
